<svg xmlns="http://www.w3.org/2000/svg" viewBox="0 0 220 220">
  <defs>
    <linearGradient id="leaf" x1="0" x2="1"><stop stop-color="#4f7748"/><stop offset="1" stop-color="#9bbf79"/></linearGradient>
    <radialGradient id="rose" cx="50%" cy="50%" r="60%"><stop stop-color="#ffd7ef"/><stop offset=".55" stop-color="#b85f9d"/><stop offset="1" stop-color="#5c2280"/></radialGradient>
  </defs>
  <path d="M35 194C61 132 94 78 179 24" fill="none" stroke="#b47d27" stroke-width="5" stroke-linecap="round"/>
  <g fill="url(#leaf)" opacity=".9">
    <path d="M68 145c-25-3-35-16-34-32 23 1 36 12 34 32Z"/>
    <path d="M92 109c-21-11-25-27-17-40 20 8 28 22 17 40Z"/>
    <path d="M119 78c-14-18-11-34 1-43 15 15 17 31-1 43Z"/>
    <path d="M103 119c24-8 40-1 47 14-22 10-39 6-47-14Z"/>
    <path d="M133 82c22-8 37-2 43 11-20 9-35 5-43-11Z"/>
  </g>
  <g>
    <circle cx="58" cy="161" r="24" fill="url(#rose)"/>
    <path d="M42 161c15-19 37-16 40 4-12-10-27-8-40-4Z" fill="#f4b8d6" opacity=".75"/>
    <circle cx="143" cy="72" r="18" fill="url(#rose)"/>
    <path d="M132 72c10-13 27-11 30 3-10-6-20-5-30-3Z" fill="#f4b8d6" opacity=".75"/>
  </g>
  <g fill="#a478d3">
    <ellipse cx="170" cy="40" rx="5" ry="12" transform="rotate(30 170 40)"/>
    <ellipse cx="183" cy="47" rx="5" ry="12" transform="rotate(55 183 47)"/>
    <ellipse cx="160" cy="54" rx="5" ry="12" transform="rotate(-5 160 54)"/>
    <ellipse cx="78" cy="105" rx="4" ry="10" transform="rotate(30 78 105)"/>
    <ellipse cx="88" cy="95" rx="4" ry="10" transform="rotate(55 88 95)"/>
  </g>
</svg>
