<svg xmlns="http://www.w3.org/2000/svg" viewBox="0 0 80 140">
  <g fill="none" stroke="#5c7d56" stroke-width="3" stroke-linecap="round"><path d="M42 134C38 88 36 45 30 8"/><path d="M53 134c-5-43-2-72 14-110"/><path d="M28 134C24 97 18 69 8 36"/></g>
  <g fill="#8f59b6"><ellipse cx="30" cy="12" rx="6" ry="10" transform="rotate(-25 30 12)"/><ellipse cx="35" cy="25" rx="6" ry="10" transform="rotate(25 35 25)"/><ellipse cx="34" cy="38" rx="6" ry="10" transform="rotate(-18 34 38)"/><ellipse cx="65" cy="27" rx="5" ry="9" transform="rotate(32 65 27)"/><ellipse cx="60" cy="41" rx="5" ry="9" transform="rotate(-21 60 41)"/><ellipse cx="10" cy="39" rx="5" ry="9" transform="rotate(-30 10 39)"/><ellipse cx="16" cy="54" rx="5" ry="9" transform="rotate(22 16 54)"/></g>
</svg>
