<svg xmlns="http://www.w3.org/2000/svg" viewBox="0 0 120 120" role="img" aria-label="Bel Lei's potion mark">
  <defs>
    <linearGradient id="g" x1="0" x2="1" y1="0" y2="1"><stop stop-color="#fff2b8"/><stop offset=".45" stop-color="#f4c86d"/><stop offset="1" stop-color="#b47d27"/></linearGradient>
    <linearGradient id="p" x1="0" x2="1" y1="0" y2="1"><stop stop-color="#8d48b3"/><stop offset="1" stop-color="#321047"/></linearGradient>
  </defs>
  <circle cx="60" cy="60" r="54" fill="#240934" stroke="url(#g)" stroke-width="4"/>
  <path d="M45 16h30v12l-7 11v10c16 4 28 18 28 35 0 14-10 22-36 22S24 98 24 84c0-17 12-31 28-35V39l-7-11V16Z" fill="url(#p)" stroke="url(#g)" stroke-width="3"/>
  <path d="M32 79c10 7 20-5 31 0 11 5 17 9 25 2 1 13-8 17-28 17S31 92 32 79Z" fill="#d6b8ea" opacity=".9"/>
  <path d="M45 28h30" stroke="#fff2b8" stroke-width="5" stroke-linecap="round"/>
  <path d="M44 70c8-17 24-18 33-3-9-3-17 2-33 3Z" fill="#f4c86d" opacity=".85"/>
  <text x="60" y="83" text-anchor="middle" font-family="Georgia, serif" font-weight="700" font-size="26" fill="#fff8e6">BL</text>
  <g fill="#f4c86d"><circle cx="31" cy="35" r="2"/><circle cx="91" cy="42" r="2"/><path d="M88 24l2 5 5 2-5 2-2 5-2-5-5-2 5-2Z"/></g>
</svg>
